<mxfile host="app.diagrams.net" modified="2024-04-19T17:06:33.252Z" agent="Mozilla/5.0 (Windows NT 10.0; Win64; x64) AppleWebKit/537.36 (KHTML, like Gecko) Chrome/123.0.0.0 Safari/537.36" etag="etYN3N9zpBUkeWUY6yDu" version="24.2.7" type="device">
  <diagram name="Page-1" id="0PS91FCsLwiVeM6nZpnz">
    <mxGraphModel dx="1050" dy="1665" grid="1" gridSize="10" guides="1" tooltips="1" connect="1" arrows="1" fold="1" page="1" pageScale="1" pageWidth="850" pageHeight="1100" math="0" shadow="0">
      <root>
        <mxCell id="0" />
        <mxCell id="1" parent="0" />
        <mxCell id="lrcn9ca2_-Yb3OYpboHU-1" value="TeamServer" style="rounded=1;whiteSpace=wrap;html=1;fillColor=#f8cecc;strokeColor=#b85450;" vertex="1" parent="1">
          <mxGeometry x="120" y="200" width="160" height="100" as="geometry" />
        </mxCell>
        <mxCell id="lrcn9ca2_-Yb3OYpboHU-2" value="Operator&lt;div&gt;Client&lt;/div&gt;" style="rounded=0;whiteSpace=wrap;html=1;fillColor=#f8cecc;strokeColor=#b85450;" vertex="1" parent="1">
          <mxGeometry x="120" y="-40" width="160" height="80" as="geometry" />
        </mxCell>
        <mxCell id="lrcn9ca2_-Yb3OYpboHU-3" value="" style="endArrow=classic;html=1;rounded=0;exitX=0.5;exitY=1;exitDx=0;exitDy=0;entryX=0.5;entryY=0;entryDx=0;entryDy=0;" edge="1" parent="1" source="lrcn9ca2_-Yb3OYpboHU-2" target="lrcn9ca2_-Yb3OYpboHU-5">
          <mxGeometry width="50" height="50" relative="1" as="geometry">
            <mxPoint x="420" y="230" as="sourcePoint" />
            <mxPoint x="200" y="160" as="targetPoint" />
          </mxGeometry>
        </mxCell>
        <mxCell id="lrcn9ca2_-Yb3OYpboHU-8" value="secure&lt;div&gt;connection&lt;/div&gt;" style="edgeLabel;html=1;align=center;verticalAlign=middle;resizable=0;points=[];" vertex="1" connectable="0" parent="lrcn9ca2_-Yb3OYpboHU-3">
          <mxGeometry x="-0.0514" relative="1" as="geometry">
            <mxPoint y="44" as="offset" />
          </mxGeometry>
        </mxCell>
        <mxCell id="lrcn9ca2_-Yb3OYpboHU-5" value="&lt;div&gt;control&lt;/div&gt;&lt;div&gt;port&lt;/div&gt;" style="rounded=0;whiteSpace=wrap;html=1;" vertex="1" parent="1">
          <mxGeometry x="165" y="180" width="70" height="30" as="geometry" />
        </mxCell>
        <mxCell id="lrcn9ca2_-Yb3OYpboHU-6" value="port 443 -&lt;div&gt;https listener&lt;/div&gt;" style="rounded=0;whiteSpace=wrap;html=1;" vertex="1" parent="1">
          <mxGeometry x="270" y="250" width="80" height="30" as="geometry" />
        </mxCell>
        <mxCell id="lrcn9ca2_-Yb3OYpboHU-7" value="port 80 -&lt;div&gt;http listener&lt;/div&gt;" style="rounded=0;whiteSpace=wrap;html=1;" vertex="1" parent="1">
          <mxGeometry x="270" y="210" width="80" height="30" as="geometry" />
        </mxCell>
        <mxCell id="lrcn9ca2_-Yb3OYpboHU-14" value="Compromised&lt;div&gt;Machine #1&lt;/div&gt;&lt;div&gt;(located in DMZ)&lt;/div&gt;" style="rounded=0;whiteSpace=wrap;html=1;fillColor=#fff2cc;strokeColor=#d6b656;" vertex="1" parent="1">
          <mxGeometry x="550" y="195" width="140" height="95" as="geometry" />
        </mxCell>
        <mxCell id="lrcn9ca2_-Yb3OYpboHU-15" value="" style="endArrow=none;html=1;rounded=0;entryX=0;entryY=0.474;entryDx=0;entryDy=0;entryPerimeter=0;" edge="1" parent="1" target="lrcn9ca2_-Yb3OYpboHU-14">
          <mxGeometry width="50" height="50" relative="1" as="geometry">
            <mxPoint x="460" y="240" as="sourcePoint" />
            <mxPoint x="470" y="180" as="targetPoint" />
          </mxGeometry>
        </mxCell>
        <mxCell id="lrcn9ca2_-Yb3OYpboHU-18" value="depending&lt;div&gt;on communicator&lt;/div&gt;" style="edgeLabel;html=1;align=center;verticalAlign=middle;resizable=0;points=[];" vertex="1" connectable="0" parent="lrcn9ca2_-Yb3OYpboHU-15">
          <mxGeometry x="-0.6285" y="1" relative="1" as="geometry">
            <mxPoint x="24" y="1" as="offset" />
          </mxGeometry>
        </mxCell>
        <mxCell id="lrcn9ca2_-Yb3OYpboHU-16" value="" style="endArrow=classic;html=1;rounded=0;entryX=1;entryY=0.5;entryDx=0;entryDy=0;" edge="1" parent="1" target="lrcn9ca2_-Yb3OYpboHU-7">
          <mxGeometry width="50" height="50" relative="1" as="geometry">
            <mxPoint x="460" y="240" as="sourcePoint" />
            <mxPoint x="470" y="180" as="targetPoint" />
          </mxGeometry>
        </mxCell>
        <mxCell id="lrcn9ca2_-Yb3OYpboHU-17" value="" style="endArrow=classic;html=1;rounded=0;entryX=1;entryY=0.5;entryDx=0;entryDy=0;" edge="1" parent="1" target="lrcn9ca2_-Yb3OYpboHU-6">
          <mxGeometry width="50" height="50" relative="1" as="geometry">
            <mxPoint x="460" y="240" as="sourcePoint" />
            <mxPoint x="460" y="200" as="targetPoint" />
          </mxGeometry>
        </mxCell>
        <mxCell id="lrcn9ca2_-Yb3OYpboHU-22" value="secure&lt;div&gt;connection&lt;/div&gt;" style="edgeLabel;html=1;align=center;verticalAlign=middle;resizable=0;points=[];" vertex="1" connectable="0" parent="lrcn9ca2_-Yb3OYpboHU-17">
          <mxGeometry x="0.3114" y="-1" relative="1" as="geometry">
            <mxPoint x="22" as="offset" />
          </mxGeometry>
        </mxCell>
        <mxCell id="lrcn9ca2_-Yb3OYpboHU-19" value="pivot&lt;div&gt;listener&lt;/div&gt;" style="rounded=0;whiteSpace=wrap;html=1;" vertex="1" parent="1">
          <mxGeometry x="585" y="170" width="70" height="40" as="geometry" />
        </mxCell>
        <mxCell id="lrcn9ca2_-Yb3OYpboHU-20" value="Compromised&lt;div&gt;Machine #2&lt;/div&gt;" style="rounded=0;whiteSpace=wrap;html=1;fillColor=#fff2cc;strokeColor=#d6b656;" vertex="1" parent="1">
          <mxGeometry x="550" y="-47.5" width="140" height="95" as="geometry" />
        </mxCell>
        <mxCell id="lrcn9ca2_-Yb3OYpboHU-21" value="" style="endArrow=classic;html=1;rounded=0;exitX=0.5;exitY=1;exitDx=0;exitDy=0;entryX=0.5;entryY=0;entryDx=0;entryDy=0;" edge="1" parent="1" source="lrcn9ca2_-Yb3OYpboHU-20" target="lrcn9ca2_-Yb3OYpboHU-19">
          <mxGeometry width="50" height="50" relative="1" as="geometry">
            <mxPoint x="530" y="100" as="sourcePoint" />
            <mxPoint x="580" y="50" as="targetPoint" />
          </mxGeometry>
        </mxCell>
        <mxCell id="lrcn9ca2_-Yb3OYpboHU-23" value="" style="endArrow=none;dashed=1;html=1;dashPattern=1 3;strokeWidth=2;rounded=0;entryX=0;entryY=1;entryDx=0;entryDy=0;exitX=-0.001;exitY=0.476;exitDx=0;exitDy=0;exitPerimeter=0;" edge="1" parent="1" source="lrcn9ca2_-Yb3OYpboHU-14" target="lrcn9ca2_-Yb3OYpboHU-19">
          <mxGeometry width="50" height="50" relative="1" as="geometry">
            <mxPoint x="460" y="210" as="sourcePoint" />
            <mxPoint x="510" y="160" as="targetPoint" />
          </mxGeometry>
        </mxCell>
        <mxCell id="lrcn9ca2_-Yb3OYpboHU-24" value="Compromised&lt;div&gt;Machine #3&lt;/div&gt;" style="rounded=0;whiteSpace=wrap;html=1;fillColor=#fff2cc;strokeColor=#d6b656;" vertex="1" parent="1">
          <mxGeometry x="770" y="-47.5" width="140" height="95" as="geometry" />
        </mxCell>
        <mxCell id="lrcn9ca2_-Yb3OYpboHU-25" value="" style="endArrow=classic;html=1;rounded=0;exitX=0.5;exitY=1;exitDx=0;exitDy=0;entryX=0.5;entryY=0;entryDx=0;entryDy=0;" edge="1" parent="1" source="lrcn9ca2_-Yb3OYpboHU-24" target="lrcn9ca2_-Yb3OYpboHU-19">
          <mxGeometry width="50" height="50" relative="1" as="geometry">
            <mxPoint x="630" y="58" as="sourcePoint" />
            <mxPoint x="630" y="180" as="targetPoint" />
          </mxGeometry>
        </mxCell>
      </root>
    </mxGraphModel>
  </diagram>
</mxfile>
